name C:\Users\u0101727\Documents\MyRepositories\upper-imu-dc\Results\main_tracking\Case_10\FLX01_angularVelocities_bodyFrame.mot
datacolumns 4
datarows 47
range 5.01000000 5.47000000
endheader 
time	radius_imu_x	radius_imu_y	radius_imu_z	
          5.01000000	          1.32691545	         -0.10358225	          0.49507558	
          5.02000000	          1.29532217	          0.01366491	          0.50382500	
          5.03000000	          1.26035661	          0.16503502	          0.51358289	
          5.04000000	          1.22265332	          0.33618710	          0.52473617	
          5.05000000	          1.18434315	          0.49712229	          0.53819937	
          5.06000000	          1.14829081	          0.61387489	          0.55494010	
          5.07000000	          1.11701971	          0.66221841	          0.57551813	
          5.08000000	          1.09188061	          0.63648687	          0.59986564	
          5.09000000	          1.07283514	          0.54962882	          0.62737949	
          5.10000000	          1.05883812	          0.42581212	          0.65722077	
          5.11000000	          1.04846057	          0.29090419	          0.68863368	
          5.12000000	          1.04032428	          0.16641076	          0.72114047	
          5.13000000	          1.03317301	          0.06880395	          0.75460081	
          5.14000000	          1.02583140	          0.01078337	          0.78926095	
          5.15000000	          1.01745930	         -0.00069098	          0.82590202	
          5.16000000	          1.00813401	          0.02997212	          0.86599591	
          5.17000000	          0.99926593	          0.08342850	          0.91160783	
          5.18000000	          0.99329284	          0.12998037	          0.96488283	
          5.19000000	          0.99263520	          0.14190151	          1.02728205	
          5.20000000	          0.99846431	          0.10669530	          1.09896994	
          5.21000000	          1.00988376	          0.03442470	          1.17866270	
          5.22000000	          1.02378923	         -0.04346257	          1.26397091	
          5.23000000	          1.03539263	         -0.08289712	          1.35207117	
          5.24000000	          1.03928456	         -0.04103427	          1.44047750	
          5.25000000	          1.03078202	          0.10887910	          1.52766189	
          5.26000000	          1.00711305	          0.36735691	          1.61327037	
          5.27000000	          0.96797215	          0.70798556	          1.69780721	
          5.28000000	          0.91532060	          1.08602514	          1.78193359	
          5.29000000	          0.85267678	          1.45176676	          1.86572427	
          5.30000000	          0.78426647	          1.76326744	          1.94820965	
          5.31000000	          0.71434963	          1.99437763	          2.02735661	
          5.32000000	          0.64685875	          2.13652000	          2.10040986	
          5.33000000	          0.58526994	          2.19546621	          2.16435943	
          5.34000000	          0.53252509	          2.18580942	          2.21630538	
          5.35000000	          0.49088168	          2.12566241	          2.25361294	
          5.36000000	          0.46170634	          2.03299089	          2.27389091	
          5.37000000	          0.44533495	          1.92363401	          2.27491009	
          5.38000000	          0.44110669	          1.81036361	          2.25457340	
          5.39000000	          0.44758790	          1.70236507	          2.21098934	
          5.40000000	          0.46294282	          1.60465550	          2.14265042	
          5.41000000	          0.48539385	          1.51724735	          2.04868506	
          5.42000000	          0.51366834	          1.43447248	          1.92912109	
          5.43000000	          0.54730542	          1.34542897	          1.78507237	
          5.44000000	          0.58672364	          1.23597023	          1.61876981	
          5.45000000	          0.63304666	          1.09216876	          1.43341829	
          5.46000000	          0.68782882	          0.90354605	          1.23295034	
          5.47000000	          0.75312417	          0.66677107	          1.02176834	
